<svg width="915" height="180" viewBox="0 0 915 180" fill="none" xmlns="http://www.w3.org/2000/svg">
<path d="M335.6 151.16C330.395 151.16 325.573 150.307 321.136 148.6C316.699 146.893 312.859 144.504 309.616 141.432C306.459 138.445 304.155 134.904 302.704 130.808L318.32 124.92C319.344 128.163 321.349 130.765 324.336 132.728C327.408 134.776 331.163 135.8 335.6 135.8C339.013 135.8 342 135.16 344.56 133.88C347.205 132.6 349.253 130.723 350.704 128.248C352.155 125.859 352.88 122.957 352.88 119.544V103.672L356.08 107.512C353.691 111.693 350.491 114.851 346.48 116.984C342.469 119.117 337.904 120.184 332.784 120.184C326.299 120.184 320.496 118.691 315.376 115.704C310.256 112.717 306.245 108.621 303.344 103.416C300.443 98.2107 298.992 92.3653 298.992 85.88C298.992 79.3093 300.443 73.464 303.344 68.344C306.245 63.224 310.213 59.2133 315.248 56.312C320.283 53.3253 326 51.832 332.4 51.832C337.605 51.832 342.171 52.9413 346.096 55.16C350.107 57.2933 353.435 60.408 356.08 64.504L353.776 68.728V53.368H369.648V119.544C369.648 125.603 368.155 131.021 365.168 135.8C362.267 140.579 358.256 144.333 353.136 147.064C348.101 149.795 342.256 151.16 335.6 151.16ZM334.832 104.696C338.416 104.696 341.531 103.928 344.176 102.392C346.907 100.771 349.04 98.552 350.576 95.736C352.112 92.92 352.88 89.6773 352.88 86.008C352.88 82.424 352.069 79.224 350.448 76.408C348.912 73.5067 346.779 71.2453 344.048 69.624C341.403 68.0027 338.331 67.192 334.832 67.192C331.333 67.192 328.176 68.0027 325.36 69.624C322.544 71.2453 320.325 73.5067 318.704 76.408C317.168 79.224 316.4 82.424 316.4 86.008C316.4 89.592 317.168 92.792 318.704 95.608C320.325 98.424 322.501 100.643 325.232 102.264C328.048 103.885 331.248 104.696 334.832 104.696ZM416.796 124.536C409.969 124.536 403.74 122.957 398.108 119.8C392.561 116.643 388.124 112.333 384.796 106.872C381.553 101.411 379.932 95.1813 379.932 88.184C379.932 81.1867 381.553 74.9573 384.796 69.496C388.124 64.0347 392.561 59.7253 398.108 56.568C403.655 53.4107 409.884 51.832 416.796 51.832C423.623 51.832 429.809 53.4107 435.356 56.568C440.903 59.7253 445.297 64.0347 448.54 69.496C451.868 74.872 453.532 81.1013 453.532 88.184C453.532 95.1813 451.868 101.411 448.54 106.872C445.212 112.333 440.775 116.643 435.228 119.8C429.681 122.957 423.537 124.536 416.796 124.536ZM416.796 109.176C420.551 109.176 423.836 108.28 426.652 106.488C429.553 104.696 431.815 102.221 433.436 99.064C435.143 95.8213 435.996 92.1947 435.996 88.184C435.996 84.088 435.143 80.504 433.436 77.432C431.815 74.2747 429.553 71.8 426.652 70.008C423.836 68.1307 420.551 67.192 416.796 67.192C412.956 67.192 409.585 68.1307 406.684 70.008C403.783 71.8 401.479 74.2747 399.772 77.432C398.151 80.504 397.34 84.088 397.34 88.184C397.34 92.1947 398.151 95.8213 399.772 99.064C401.479 102.221 403.783 104.696 406.684 106.488C409.585 108.28 412.956 109.176 416.796 109.176ZM479.974 123L456.038 53.368H473.702L491.238 106.232L485.094 106.104L503.782 53.368H518.63L537.19 106.104L531.046 106.232L548.582 53.368H566.246L542.31 123H527.334L508.39 67.832H514.022L494.822 123H479.974ZM591.498 124.536C586.634 124.536 582.41 123.725 578.826 122.104C575.242 120.483 572.469 118.179 570.506 115.192C568.543 112.12 567.562 108.579 567.562 104.568C567.562 100.728 568.415 97.3147 570.122 94.328C571.829 91.256 574.474 88.696 578.058 86.648C581.642 84.6 586.165 83.1493 591.626 82.296L614.41 78.584V91.384L594.826 94.712C591.498 95.3093 589.023 96.376 587.402 97.912C585.781 99.448 584.97 101.453 584.97 103.928C584.97 106.317 585.866 108.237 587.658 109.688C589.535 111.053 591.839 111.736 594.57 111.736C598.069 111.736 601.141 111.011 603.786 109.56C606.517 108.024 608.607 105.933 610.058 103.288C611.594 100.643 612.362 97.7413 612.362 94.584V76.664C612.362 73.6773 611.167 71.2027 608.778 69.24C606.474 67.192 603.402 66.168 599.562 66.168C595.978 66.168 592.778 67.1493 589.962 69.112C587.231 70.9893 585.226 73.5067 583.946 76.664L570.25 70.008C571.615 66.3387 573.749 63.1813 576.65 60.536C579.637 57.8053 583.135 55.672 587.146 54.136C591.157 52.6 595.509 51.832 600.202 51.832C605.919 51.832 610.954 52.8987 615.306 55.032C619.658 57.08 623.029 59.9813 625.418 63.736C627.893 67.4053 629.13 71.7147 629.13 76.664V123H613.258V111.096L616.842 110.84C615.05 113.827 612.917 116.344 610.442 118.392C607.967 120.355 605.151 121.891 601.994 123C598.837 124.024 595.338 124.536 591.498 124.536ZM642.068 123V53.368H657.812V67.064L656.532 64.632C658.153 60.4507 660.799 57.2933 664.468 55.16C668.223 52.9413 672.575 51.832 677.524 51.832C682.644 51.832 687.167 52.9413 691.092 55.16C695.103 57.3787 698.217 60.4933 700.436 64.504C702.655 68.4293 703.764 72.9947 703.764 78.2V123H686.996V82.168C686.996 79.096 686.399 76.4507 685.204 74.232C684.009 72.0133 682.345 70.3067 680.212 69.112C678.164 67.832 675.732 67.192 672.916 67.192C670.185 67.192 667.753 67.832 665.62 69.112C663.487 70.3067 661.823 72.0133 660.628 74.232C659.433 76.4507 658.836 79.096 658.836 82.168V123H642.068ZM747.767 124.536C741.026 124.536 735.01 122.957 729.719 119.8C724.428 116.557 720.247 112.163 717.175 106.616C714.103 101.069 712.567 94.9253 712.567 88.184C712.567 81.3573 714.103 75.2133 717.175 69.752C720.247 64.2907 724.428 59.9387 729.719 56.696C735.095 53.4533 741.068 51.832 747.639 51.832C752.93 51.832 757.623 52.8987 761.719 55.032C765.9 57.08 769.186 59.9813 771.575 63.736L769.015 67.192V26.104H785.783V123H769.911V109.56L771.703 112.888C769.314 116.643 765.986 119.544 761.719 121.592C757.452 123.555 752.802 124.536 747.767 124.536ZM749.559 109.176C753.399 109.176 756.77 108.28 759.671 106.488C762.572 104.696 764.834 102.221 766.455 99.064C768.162 95.9067 769.015 92.28 769.015 88.184C769.015 84.1733 768.162 80.5893 766.455 77.432C764.834 74.1893 762.572 71.672 759.671 69.88C756.77 68.088 753.399 67.192 749.559 67.192C745.804 67.192 742.434 68.1307 739.447 70.008C736.46 71.8 734.114 74.2747 732.407 77.432C730.786 80.504 729.975 84.088 729.975 88.184C729.975 92.28 730.786 95.9067 732.407 99.064C734.114 102.221 736.46 104.696 739.447 106.488C742.434 108.28 745.804 109.176 749.559 109.176ZM831.847 124.536C824.679 124.536 818.407 122.915 813.031 119.672C807.655 116.429 803.474 112.035 800.487 106.488C797.5 100.941 796.007 94.7973 796.007 88.056C796.007 81.0587 797.5 74.872 800.487 69.496C803.559 64.0347 807.698 59.7253 812.903 56.568C818.194 53.4107 824.082 51.832 830.567 51.832C836.028 51.832 840.807 52.728 844.903 54.52C849.084 56.312 852.626 58.7867 855.527 61.944C858.428 65.1013 860.647 68.728 862.183 72.824C863.719 76.8347 864.487 81.1867 864.487 85.88C864.487 87.0747 864.402 88.312 864.231 89.592C864.146 90.872 863.932 91.9813 863.591 92.92H809.831V80.12H854.119L846.183 86.136C846.951 82.2107 846.738 78.712 845.543 75.64C844.434 72.568 842.556 70.136 839.911 68.344C837.351 66.552 834.236 65.656 830.567 65.656C827.068 65.656 823.954 66.552 821.223 68.344C818.492 70.0507 816.402 72.6107 814.951 76.024C813.586 79.352 813.074 83.4053 813.415 88.184C813.074 92.4507 813.628 96.248 815.079 99.576C816.615 102.819 818.834 105.336 821.735 107.128C824.722 108.92 828.135 109.816 831.975 109.816C835.815 109.816 839.058 109.005 841.703 107.384C844.434 105.763 846.567 103.587 848.103 100.856L861.671 107.512C860.306 110.84 858.172 113.784 855.271 116.344C852.37 118.904 848.914 120.909 844.903 122.36C840.978 123.811 836.626 124.536 831.847 124.536ZM874.638 123V53.368H890.382V68.856L889.102 66.552C890.723 61.3467 893.241 57.72 896.654 55.672C900.153 53.624 904.334 52.6 909.198 52.6H913.294V67.448H907.278C902.499 67.448 898.659 68.9413 895.758 71.928C892.857 74.8293 891.406 78.9253 891.406 84.216V123H874.638Z" fill="#F4F4F4"/>
<circle cx="90" cy="90" r="90" fill="#469BE9"/>
<circle cx="173" cy="90" r="90" fill="#F7B553"/>
</svg>
